<svg xmlns="http://www.w3.org/2000/svg" viewBox="0 0 200 200">
  <defs>
    <style>
      .cls-1{fill:#fcf9ce;stroke-width:2px;}.cls-1,.cls-2{stroke:#662d91;}.cls-2{fill:none;stroke-width:3px;}.cls-3{fill:#7f3f98;}
    </style>
  </defs>
  <rect class="cls-1" x="160.3" y="68.1" width="24.74" height="39.83"
        transform="translate(77.74 -80.95) rotate(33.66)"/>
  <line class="cls-2" x1="171.64" y1="74.09" x2="186.33" y2="83.88"/>
  <line class="cls-2" x1="167.87" y1="79.75" x2="182.56" y2="89.53"/>
  <line class="cls-2" x1="164.1" y1="85.4" x2="178.8" y2="95.19"/>
  <line class="cls-2" x1="160.34" y1="91.06" x2="175.03" y2="100.84"/>
  <path class="cls-3"
        d="M158.18,71.7c-.71-.54-.64-2.51-.45-3.76.49-3.41-.81-5.29-4-6.7-5.15-2.28-9.84-6.06-15.17-7.35s-18.95-.32-20.45-.32l8.76,10.74c-2.83,1.75-5.24,3.63-7.94,4.84-6.3,2.83-13.1,3.09-19.85,2.91-11-.28-21.9-1-32.85-1.21-9.1-.13-18,1.11-26,6-.57.34-25.27-9-31.53-20.95-.43-.81-1-1.56-1.8-2.89-1.11,3-.29,5.18.56,7.2,4.63,11,25,22.63,25.63,22.87-1.12,1.88-2.19,3.5-3.07,5.22-3.85,7.54-5.06,15.68-5.07,24a3.89,3.89,0,0,1-2.52,4c-3.55,1.74-6.87,4-10.54,5.44-4.61,1.78-6.28,4.52-5.77,9.49.53,5.15.12,10.39.12,15.69H18.25c0-3.34-1.06-4.28-5.86-5.29v-9.69c.28-.15,17.81-4.31,26.4-6.47a7.47,7.47,0,0,0,3.65-2.3c5.6-6.65,17.83-21.6,18.49-22.34,7.77,8,13,11.2,22.38,12.84,5.29.92,10.74.93,16.09,1.57a9.64,9.64,0,0,1,4.73,1.72c11.83,9.52,23.55,19.17,35.31,28.78.59.47,1.23,1.2,1.86,1.23,3.57.11,7.15.05,10.76.05-.46-3.68-2.07-5-5.67-5.11-1.61,0-3.19.35-4.53-1.38-6.31-8.13-12.8-16.12-19.17-24.2a4.89,4.89,0,0,1-1-2.71c-.11-3.88-.08-7.77,0-11.65,0-2.13,14.62-12.29,21.51-17.36l13.89,4.66c7.13,0,13.23-4.17,15.08-9.89C171.35,78.87,160.16,73.21,158.18,71.7Z"/>
  <path class="cls-3"
        d="M62.53,142c-3,.27-4.47-1-5.52-3.52A20.56,20.56,0,0,0,55.08,135a11.13,11.13,0,0,1-1.85-7.16c.16-3.43,0-6.87,0-10.3l-.57-.22c-2.5,3-5.06,6.06-7.48,9.18-1.17,1.51-.68,6.61.59,8.07,3.2,3.69,6.4,7.38,9.64,11.05.48.55,1.12,1.36,1.7,1.38,3.57.13,7.14.07,10.8.07C67.05,143.23,65.68,141.73,62.53,142Z"/>
  <path class="cls-3"
        d="M115.32,144.2a52.65,52.65,0,0,0-5.7-3.18v-7.27l6.53-1.68c-2.44-2-4.59-3.63-6.56-5.45a2.8,2.8,0,0,0-3.77-.45,3.05,3.05,0,0,0-1.91,3.36c.14,1.84,0,3.71,0,5.56V147h12.37C116,145.91,115.94,144.64,115.32,144.2Z"/>
</svg>
